<?xml version="1.0" encoding="utf-8"?>
<!-- Generator: Adobe Illustrator 27.5.0, SVG Export Plug-In . SVG Version: 6.00 Build 0)  -->
<svg version="1.1" id="レイヤー_1" xmlns="http://www.w3.org/2000/svg" xmlns:xlink="http://www.w3.org/1999/xlink" x="0px"
	 y="0px" viewBox="0 0 60 38" style="enable-background:new 0 0 60 38;" xml:space="preserve">
<style type="text/css">
	.st0{fill:#FFF7F7;}
</style>
<g id="EK">
	<path id="Path" class="st0" d="M25.1,26.9v4.6c-2.4,1.9-4.8,3.4-7.2,4.4c-2.4,1-4.8,1.4-7.2,1.4c-3.2,0-5.8-0.9-7.8-2.7
		C1,32.8,0,30.4,0,27.4c0-2.8,0.8-5.1,2.3-6.9c1.4-1.7,3.5-2.9,6.2-3.8c-2-1.4-3-3.3-3-5.9c0-2.6,1-5,3.1-7.1
		c2.3-2.4,5.3-3.6,8.8-3.6c2.1,0,3.7,0.6,4.9,1.7c1.2,1.1,1.9,2.6,1.9,4.5c0,1.6-0.5,3-1.6,4.2c-1.1,1.2-2.3,1.8-3.7,1.8
		c-0.2,0-0.5-0.2-0.7-0.7c-0.3-0.5-0.4-1-0.4-1.6c0-0.1,0.4-0.5,1.3-1.2c0.8-0.7,1.3-1.5,1.3-2.4s-0.3-1.6-1-2.2
		c-0.6-0.6-1.5-0.9-2.5-0.9c-1.8,0-3.5,0.8-5,2.5c-1.5,1.7-2.3,3.5-2.3,5.5c0,1.2,0.3,2.1,0.9,2.9c0.6,0.8,1.4,1.2,2.4,1.2h2.5
		c0.9,0,1.5,0.1,1.8,0.2c0.3,0.1,0.4,0.5,0.4,1c0,1.2-0.2,1.9-0.5,2.1c-0.3,0.2-1,0.4-1.9,0.4c-0.4,0-0.9-0.1-1.7-0.2
		c-0.8-0.1-1.3-0.2-1.7-0.2c-1.4,0-2.9,0.7-4.5,2.1c-2,1.7-3,3.9-3,6.4c0,1.9,0.7,3.4,2,4.6c1.3,1.2,3.1,1.7,5.4,1.7
		C16.3,33.6,20.7,31.4,25.1,26.9z"/>
	<path id="Path_2" class="st0" d="M31.7,26.6l5-20.6c-1.6,1-2.9,1.9-4.1,2.5c-2.2,1.4-3.4,2.1-3.7,2.1c-0.1-0.1-0.2-0.2-0.2-0.3
		c0-0.2,0.1-0.7,0.3-1.4c0.2-0.7,0.5-1.5,0.8-2.3c1.7-1,3.3-2,4.9-3.1c1.5-1,3.3-2.2,5.1-3.5l1.4-0.1c0.7,0,1.3,0.1,1.8,0.3l-0.6,2
		c-1.4,4.6-2.7,9.7-4.1,15.2c1.8-1.2,3.6-2.8,5.6-4.6c1.3-1.2,3-3,5.1-5.3c1.6-1.8,3.3-3.6,4.9-5.4c0.5-0.6,1.1-1.2,1.5-1.6
		C56,0.2,56.4,0,56.6,0c0.3,0,0.7,0.4,1.2,1.3c0.5,0.9,0.8,1.5,0.8,1.8c0,0.5-1.2,1.8-3.5,3.9c-1.9,1.8-4.1,3.7-6.7,5.9
		c-1.4,1.2-2.9,2.4-4.3,3.6c1.4,1,2.4,2.5,2.9,4.2c0.4,1.4,0.6,3.4,0.6,6v1.8c0,1.8,0.2,3.1,0.5,3.9c0.3,0.8,1,1.2,2,1.2
		c2.2,0,5.5-2.2,9.9-6.7v4.6c-2.6,2.2-4.7,3.7-6.4,4.5c-1.6,0.8-3.3,1.3-4.8,1.3c-2.4,0-4-1.1-4.8-3.2c-0.5-1.4-0.8-3.5-0.8-6.3
		v-1.7c0-2.1-0.1-3.6-0.4-4.6c-0.3-1-0.7-1.9-1.5-2.7c-1,0.8-1.9,1.4-2.4,1.8c-0.4,0.2-0.8,0.5-1.4,0.8L37,23.6
		c-1,4.5-2,7.7-2.9,9.5c-1.4,2.8-3.2,4.2-5.4,4.2c-0.4,0-0.7,0-1.1-0.1c-0.3-0.1-0.7-0.2-1.1-0.4L25.7,33l1.7,0.2
		c1,0,1.8-0.5,2.5-1.5C30.5,30.7,31.1,29,31.7,26.6z"/>
</g>
</svg>
