<?xml version="1.0" encoding="utf-8"?>
<!-- Generator: Adobe Illustrator 27.5.0, SVG Export Plug-In . SVG Version: 6.00 Build 0)  -->
<svg version="1.1" id="レイヤー_1" xmlns="http://www.w3.org/2000/svg" xmlns:xlink="http://www.w3.org/1999/xlink" x="0px"
	 y="0px" viewBox="0 0 419.5 283.5" style="enable-background:new 0 0 419.5 283.5;" xml:space="preserve">
<style type="text/css">
	.st0{fill:#FFF7F7;}
</style>
<g>
	<path class="st0" d="M136.5,131.8c0-5.7-4.2-8.4-8.5-8.4c-4.4,0-8.9,2.9-8.9,8.2c0,1.7,0.6,3.9,2.6,5.3c0.8-0.9,1.6-1.4,2.7-1.4
		c1.8,0,3.4,1.2,3.4,3.6c0,2.4-1.8,3.9-5.3,3.9c-10.5,0-20-4.1-29.6-8.4c-9.3-4.1-18.8-8.4-29.2-8.4c-17.7,0-30.1,12.7-30.1,30.3
		c0,15.8,11.9,23.5,23.4,23.5c10.5,0,20.8-6.7,20.8-20.1c0-5.5-2.2-11.3-9-14.7c-2.4,4.6-6.9,6.9-11.3,6.9
		c-15.1,0-16.6-24.2,6.3-24.2c20.1,0,37.5,16.8,58.8,16.8v0.2c-9.7,0.5-25.9-0.3-33.2-2.6c4.3,6.3,4.2,18.2,2.7,27.9l-8.2,53.5
		C78.7,257.1,62.8,276,38.6,276c-20.8,0-31.1-13.5-31.1-32.9c0-18,10.2-30.9,25.5-30.9c9.5,0,12.7,5.5,12.7,11.3
		c0,7.2-5.3,15.1-15,15.2c-2.9,10.5,3.5,20.2,14.7,20.2c11.6,0,20.5-8.7,20.5-21.3c0-17.1-16.8-27.2-31.7-27.2
		c-18,0-33.2,13.5-33.2,32.9c0,22.4,15.8,34.3,37.7,34.3c24.8,0,41.6-19.2,46.9-53.7l9.7-63.2l88.4,108.4l-9.5-37.4l-48.7-87.5
		C130.4,143.6,136.5,139.6,136.5,131.8z"/>
	<path class="st0" d="M178.1,205.2"/>
	<path class="st0" d="M210.7,211.5c-10.2-12.1-28.6,18.3-28.6,36.3c0,19.4,10.3,32.9,31.1,32.9c17.2,0,30.9-14.9,35.1-44.6l8.4-58.4
		c3.2-22.6,26.7-27.4,40.4-28.1v-0.2c-21.3,0-38.7-16.8-58.8-16.8c-22.9,0-21.4,24.2-6.3,24.2c4.4,0,8.9-2.2,11.3-6.9
		c6.8,3.4,9,9.3,9,14.7c0,13.4-10.3,20-20.8,20c-11.4,0-23.4-7.7-23.4-23.5c0-17.6,12.4-30.3,30.1-30.3c10.3,0,19.8,4.3,29.1,8.4
		c9.7,4.3,19.2,8.4,29.6,8.4c3.5,0,5.3-1.5,5.3-3.9s-1.6-3.6-3.4-3.6c-1.1,0-1.9,0.5-2.7,1.4c-1.9-1.4-2.6-3.6-2.6-5.3
		c0-5.3,4.5-8.2,8.9-8.2s8.5,2.7,8.5,8.4c0,12.5-16.9,5.8-21.4,36.3l-4.6,31.2l22.3-22.7c13-13.2,16.6-23,19.2-27.6
		c23.7-42.4,9-25.1,2.4-25.1l6.5-11.2h47l-16.2,5.9c-18.9,7.3-47.4,47.8-58.2,59l-19.5,20c25.1-6.2,36.5,1.3,47.7,33.5
		c7.4,21.4,10.5,35.8,20.9,34.8v0.7c-8.5,4.1-16.4,6.2-23.4,6.2c-21.1,0-26.6-11.3-30.9-31.2c-5-23.4-5.5-41.8-15.7-42.5l-2.6,2.7
		l-3.7,25.2c-6.4,43.7-49.9,50.7-67.8,50.7c-21.9,0-37.7-11.8-37.7-34.3c0-19.4,4-75,8.1-101.6c5.8-37.1,48.4,87.6,36.5,76.1"/>
</g>
</svg>
