<?xml version="1.0" encoding="utf-8"?>
<!-- Generator: Adobe Illustrator 27.5.0, SVG Export Plug-In . SVG Version: 6.00 Build 0)  -->
<svg version="1.1" id="レイヤー_1" xmlns="http://www.w3.org/2000/svg" xmlns:xlink="http://www.w3.org/1999/xlink" x="0px"
	 y="0px" viewBox="0 0 419.53 283.46" style="enable-background:new 0 0 419.53 283.46;" xml:space="preserve">
<style type="text/css">
	.st0{fill:#FFF7F7;}
</style>
<g>
	<path class="st0" d="M157.09,65.55c0-6.06-4.77-9-9.73-9c-4.96,0-10.1,3.12-10.1,8.81c0,1.84,0.74,4.22,2.94,5.69
		c0.92-0.92,1.84-1.47,3.12-1.47c2.02,0,3.85,1.29,3.85,3.86s-2.02,4.22-6.06,4.22c-11.93,0-22.76-4.41-33.78-9
		c-10.65-4.41-21.48-9-33.23-9c-20.19,0-34.33,13.58-34.33,32.49c0,16.89,13.58,25.15,26.62,25.15c11.93,0,23.68-7.16,23.68-21.48
		c0-5.87-2.57-12.12-10.28-15.79c-2.75,4.96-7.89,7.34-12.85,7.34c-17.26,0-18.91-25.88,7.16-25.88c22.95,0,42.77,17.99,67.01,17.99
		v0.18c-11.02,0.55-29.56-0.37-37.82-2.75c4.96,6.79,4.77,19.46,3.12,29.92l-9.36,57.27c-5.87,35.8-24.05,55.99-51.58,55.99
		c-23.68,0-35.43-14.5-35.43-35.25c0-19.28,11.56-33.04,29-33.04c10.83,0,14.5,5.87,14.5,12.12c0,7.71-6.06,16.15-17.07,16.34
		c-3.3,11.2,4.04,21.66,16.7,21.66c13.22,0,23.32-9.36,23.32-22.76c0-18.36-19.09-29.19-36.16-29.19
		c-20.56,0-37.82,14.5-37.82,35.25c0,24.05,17.99,36.71,42.96,36.71c28.27,0,47.36-20.56,53.42-57.46l11.08-67.71l100.74,116.11
		l-10.82-40.09l-55.47-93.67C150.11,78.21,157.09,73.99,157.09,65.55z"/>
	<path class="st0" d="M204.45,144.21"/>
	<path class="st0" d="M241.66,150.91c-11.63-13-32.64,19.65-32.64,38.92c0,20.74,11.75,35.25,35.43,35.25
		c19.64,0,35.25-15.97,40.02-47.73l9.55-62.6c3.67-24.23,30.47-29.37,46.08-30.11v-0.18c-24.23,0-44.06-17.99-67-17.99
		c-26.07,0-24.41,25.88-7.16,25.88c4.96,0,10.1-2.39,12.85-7.34c7.71,3.67,10.28,9.91,10.28,15.79c0,14.32-11.75,21.48-23.68,21.48
		c-13.03,0-26.62-8.26-26.62-25.15c0-18.91,14.14-32.49,34.33-32.49c11.75,0,22.58,4.59,33.23,9c11.02,4.59,21.85,9,33.78,9
		c4.04,0,6.06-1.65,6.06-4.22s-1.84-3.86-3.86-3.86c-1.28,0-2.2,0.55-3.12,1.47c-2.2-1.47-2.94-3.86-2.94-5.69
		c0-5.69,5.14-8.81,10.1-8.81s9.73,2.94,9.73,9c0,13.4-19.28,6.24-24.41,38.92l-5.25,33.46l25.44-24.28
		c14.87-14.13,21.85-23.86,21.85-29.55c0-3.86-2.94-5.69-10.46-5.69l0.19-1.47h53.6l-0.19,1.47c-22.4,0-51.77,24.42-64.07,36.35
		l-22.19,21.44c28.6-6.69,41.63,1.36,54.31,35.83c8.44,22.94,11.93,38.37,23.86,37.27v0.73c-9.73,4.41-18.73,6.61-26.62,6.61
		c-24.05,0-30.29-12.12-35.25-33.41c-5.74-25.12-6.22-44.8-17.89-45.5l-3.02,2.92l-4.24,26.99c-7.34,46.81-56.91,54.34-77.29,54.34
		c-24.96,0-42.96-12.67-42.96-36.71c0-20.74,4.51-80.35,9.22-108.81c6.58-39.77,55.18,93.86,41.64,81.47"/>
</g>
</svg>
